<?xml version="1.0" standalone="no"?>
<!DOCTYPE svg PUBLIC "-//W3C//DTD SVG 20010904//EN"
 "http://www.w3.org/TR/2001/REC-SVG-20010904/DTD/svg10.dtd">
<svg version="1.0" xmlns="http://www.w3.org/2000/svg"
 width="500.000000pt" height="500.000000pt" viewBox="0 0 500.000000 500.000000"
 preserveAspectRatio="xMidYMid meet">

<g transform="translate(0.000000,500.000000) scale(0.100000,-0.100000)"
fill="#000000" stroke="none">
<path d="M2295 4814 c-259 -30 -402 -60 -585 -122 -404 -139 -698 -319 -980
-602 -257 -258 -442 -559 -558 -905 -86 -258 -118 -487 -109 -775 31 -984 736
-1852 1732 -2134 275 -78 450 -99 770 -93 209 4 273 9 390 30 420 77 812 253
1130 508 103 82 292 271 374 374 249 311 407 671 472 1077 29 182 24 545 -10
711 -94 462 -288 839 -602 1170 -393 416 -945 687 -1529 753 -110 12 -413 17
-495 8z m-1017 -1591 c2 -8 -15 -21 -41 -32 -25 -11 -49 -25 -53 -33 -5 -7
-11 -98 -14 -203 l-5 -190 -162 -3 c-150 -2 -163 -1 -164 15 -13 355 -14 361
-38 387 -13 14 -36 28 -52 31 -32 7 -44 20 -34 35 10 16 557 9 563 -7z m981
-12 c187 -48 332 -162 409 -321 66 -135 75 -125 -117 -125 l-165 0 -13 76
c-39 235 -135 332 -348 353 -56 5 -109 7 -118 3 -15 -6 -17 -30 -17 -222 l0
-215 -162 2 -163 3 -5 191 c-5 209 -6 213 -69 242 -19 9 -36 23 -39 30 -3 11
60 13 359 9 334 -3 371 -6 448 -26z m1068 17 c5 -7 18 -35 28 -63 10 -27 46
-123 81 -213 35 -90 64 -170 64 -178 0 -12 -25 -14 -162 -12 l-163 3 -44 118
c-24 64 -48 117 -53 117 -5 0 -6 -51 -2 -121 l7 -121 -28 4 -28 3 -1 181 c-1
204 -2 206 -78 245 -21 11 -38 26 -38 34 0 13 31 15 204 15 151 0 206 -3 213
-12z m1173 -3 c0 -8 -18 -24 -39 -35 -22 -11 -43 -25 -48 -32 -4 -7 -10 -98
-13 -203 l-5 -190 -160 0 -160 0 2 123 c1 72 -2 122 -7 122 -6 0 -10 -4 -10
-9 0 -5 -18 -62 -41 -125 l-41 -116 -34 0 c-19 0 -34 4 -34 9 0 10 158 450
167 464 2 4 98 7 214 7 178 0 209 -2 209 -15z m-4053 -737 c-2 -13 -4 -3 -4
22 0 25 2 35 4 23 2 -13 2 -33 0 -45z m139 45 c13 -17 15 -17 28 0 19 24 26
21 26 -10 0 -21 -3 -24 -9 -14 -8 12 -12 12 -24 2 -12 -9 -17 -9 -23 1 -6 9
-10 6 -15 -12 -6 -21 -7 -19 -8 13 -1 41 5 46 25 20z m197 10 c-13 -2 -23 -11
-23 -19 0 -17 31 -18 50 -1 12 10 12 9 1 -5 -7 -10 -22 -18 -31 -18 -10 0 -21
-6 -23 -12 -3 -7 -6 4 -6 25 -1 34 1 37 27 36 23 -2 24 -2 5 -6z m211 -15 c8
-13 8 -23 0 -35 -13 -21 -65 -24 -72 -5 -3 11 0 11 16 1 10 -7 27 -9 36 -6 26
10 16 50 -14 59 -25 7 -25 7 -1 5 13 -1 29 -10 35 -19z m177 10 c1 -7 0 -17
-1 -23 -1 -5 -3 -15 -3 -22 0 -8 -5 -8 -19 0 -15 10 -21 9 -28 -3 -7 -11 -10
-5 -10 23 0 35 2 37 30 37 17 0 31 -6 31 -12z m153 5 c-5 -5 -11 -11 -14 -14
-3 -4 -11 -1 -18 7 -11 12 -8 14 14 14 15 0 23 -3 18 -7z m166 -14 c0 -5 -5
-8 -11 -6 -6 1 -14 -4 -16 -11 -4 -9 2 -13 17 -10 13 2 25 -1 27 -7 1 -5 -13
-10 -32 -10 -19 0 -35 1 -35 3 0 2 7 16 15 33 14 27 35 32 35 8z m194 -1 c12
-20 0 -49 -25 -56 -8 -2 -6 2 5 10 23 18 17 52 -11 56 -16 2 -23 -3 -26 -20
-4 -20 -4 -19 -6 5 -1 25 2 28 25 25 15 -2 32 -11 38 -20z m184 10 c7 -7 12
-19 11 -27 0 -10 -4 -6 -10 8 -7 19 -15 22 -39 19 -16 -2 -27 -1 -24 4 8 12
48 10 62 -4z m176 4 c3 -5 -8 -6 -25 -4 -22 3 -29 0 -29 -13 0 -13 7 -16 28
-13 21 3 28 0 28 -13 0 -14 -3 -15 -14 -7 -10 9 -18 9 -32 1 -15 -10 -18 -8
-18 15 0 15 2 30 5 35 6 10 51 9 57 -1z m149 1 c-13 -2 -23 -11 -23 -19 0 -8
10 -15 23 -15 l22 -2 -23 -4 c-15 -3 -22 -10 -18 -19 3 -8 1 -14 -4 -14 -6 0
-10 18 -10 40 0 37 2 40 28 39 23 -2 24 -2 5 -6z m169 0 c-17 -3 -22 -9 -17
-21 5 -13 3 -14 -6 -5 -16 16 -3 33 24 32 21 -2 21 -2 -1 -6z m320 -18 c9 -20
9 -28 -2 -38 -10 -10 -12 -9 -7 6 10 27 -3 47 -30 47 -23 0 -25 -3 -21 -35 2
-19 0 -35 -4 -35 -4 0 -8 18 -8 40 0 38 2 40 30 40 23 0 33 -6 42 -25z m146
18 c-34 -5 -38 -32 -5 -34 l22 -2 -23 -4 c-15 -3 -22 -10 -18 -19 3 -8 1 -14
-4 -14 -6 0 -10 18 -10 40 0 39 1 40 33 39 30 -2 30 -2 5 -6z m300 -18 c17
-37 15 -40 -18 -40 -16 0 -30 3 -30 7 0 13 23 58 30 58 4 0 12 -11 18 -25z
m186 16 c4 -5 -3 -7 -14 -4 -11 3 -27 0 -35 -7 -9 -8 -15 -8 -15 -2 0 19 54
30 64 13z m146 -4 c-27 -15 -36 -14 -25 2 3 6 16 11 28 11 21 0 21 -1 -3 -13z
m183 6 c-13 -2 -23 -11 -23 -19 0 -8 10 -15 23 -15 l22 -2 -23 -4 c-15 -3 -22
-10 -18 -19 3 -8 1 -14 -4 -14 -6 0 -10 18 -10 40 0 37 2 40 28 39 23 -2 24
-2 5 -6z m169 0 c-15 -3 -22 -10 -18 -19 6 -16 -10 -19 -19 -4 -10 17 5 30 33
29 25 -2 25 -2 4 -6z m208 -13 c8 -15 8 -25 0 -38 -10 -15 -10 -15 -6 3 8 30
-8 48 -38 43 -14 -3 -23 -1 -20 3 10 17 53 9 64 -11z m176 2 c1 -7 0 -8 -3 -2
-8 16 -53 12 -53 -5 0 -9 9 -15 25 -15 14 0 25 -5 25 -10 0 -6 -10 -8 -24 -4
-18 4 -25 1 -29 -13 -3 -10 -5 1 -6 25 -1 43 -1 43 31 40 17 -2 33 -9 34 -16z
m292 6 c7 -7 12 -16 12 -22 0 -5 -6 -2 -13 8 -19 26 -52 17 -52 -14 0 -17 7
-26 25 -31 21 -6 22 -7 5 -8 -25 -1 -45 17 -45 39 0 21 19 40 40 40 9 0 21 -5
28 -12z m155 5 c-25 -5 -30 -18 -10 -26 9 -4 9 -6 0 -6 -15 -1 -26 16 -18 29
3 6 16 9 28 9 22 -2 22 -2 0 -6z m-3716 -25 c-3 -8 -6 -5 -6 6 -1 11 2 17 5
13 3 -3 4 -12 1 -19z m1463 -22 c0 -8 -4 -17 -8 -20 -4 -2 -8 4 -8 15 0 10 4
19 8 19 4 0 8 -6 8 -14z m879 -9 c12 -15 12 -17 -3 -11 -9 3 -16 13 -16 22 0
8 1 13 3 11 1 -2 9 -12 16 -22z m566 3 c0 -7 -7 -15 -15 -17 -13 -4 -13 -3 0
6 13 10 13 12 0 22 -13 9 -13 10 0 6 8 -2 15 -10 15 -17z m839 11 c3 -5 -2
-15 -12 -22 -15 -13 -16 -12 -4 3 10 13 10 17 0 21 -9 4 -9 6 -1 6 6 1 14 -3
17 -8z m-1205 -29 c-14 -5 -39 6 -39 17 0 5 11 4 25 -2 13 -7 20 -14 14 -15z
m-1834 8 c3 -5 1 -10 -4 -10 -6 0 -11 5 -11 10 0 6 2 10 4 10 3 0 8 -4 11 -10z
m2351 -8 c-10 -2 -22 0 -28 6 -6 6 0 7 19 4 21 -5 23 -7 9 -10z m-2139 2 c-3
-3 -12 -4 -19 -1 -8 3 -5 6 6 6 11 1 17 -2 13 -5z m-710 -202 c-14 -117 -82
-268 -152 -338 -88 -89 -204 -134 -339 -134 -94 0 -147 20 -189 69 -32 39 -37
112 -11 150 18 25 87 60 119 61 74 0 145 -48 197 -136 18 -30 38 -54 45 -54
22 0 34 74 40 253 l6 177 145 0 145 0 -6 -48z m753 -167 l0 -215 58 0 c80 0
177 17 234 42 93 40 166 157 191 305 l13 78 162 3 c188 3 181 8 132 -96 -84
-177 -237 -297 -450 -354 -80 -22 -104 -23 -429 -23 -239 0 -345 3 -348 11 -2
6 15 19 37 29 68 31 70 37 70 241 0 99 3 184 7 187 3 4 78 7 165 7 l158 0 0
-215z m1190 19 c6 -216 7 -221 81 -243 77 -23 41 -36 -109 -39 -117 -2 -142 0
-142 12 0 7 18 21 40 30 69 27 75 45 78 254 4 181 4 183 25 180 21 -3 22 -8
27 -194z m615 154 l17 -43 19 43 c16 37 22 42 50 42 37 0 37 -2 -10 -130 -17
-47 -53 -143 -79 -215 l-47 -130 -57 -3 c-52 -3 -59 -1 -68 20 -17 40 -170
448 -170 453 0 3 74 5 164 5 l164 0 17 -42z m705 -144 c0 -108 4 -193 10 -205
6 -10 29 -28 50 -39 22 -11 40 -27 40 -35 0 -13 -38 -15 -265 -15 -227 0 -265
2 -265 15 0 8 18 24 40 35 21 11 44 29 50 39 6 12 10 97 10 205 l0 186 165 0
165 0 0 -186z m-2495 -645 c-3 -60 -22 -84 -59 -75 -15 4 -26 13 -26 23 0 13
3 14 12 5 17 -17 45 -15 52 4 3 9 6 36 6 60 0 25 4 43 9 40 5 -3 8 -29 6 -57z
m260 41 c46 -51 6 -124 -64 -118 l-36 3 -3 54 c-2 29 -1 60 2 67 9 22 80 18
101 -6z m216 -12 l23 -31 27 32 c15 18 31 31 36 28 14 -9 16 -124 3 -132 -6
-4 -10 12 -10 44 0 53 -12 65 -30 31 -6 -11 -16 -20 -23 -20 -7 0 -18 9 -25
20 -20 32 -31 23 -35 -27 -3 -40 -4 -37 -5 20 -1 37 2 67 7 67 5 0 20 -14 32
-32z m517 20 c7 -7 12 -21 12 -33 0 -30 -19 -45 -57 -45 -26 0 -33 -4 -33 -20
0 -11 -4 -20 -10 -20 -11 0 -14 113 -3 123 11 12 78 8 91 -5z m262 1 c0 -7
-16 -31 -35 -55 -19 -23 -35 -45 -35 -48 0 -3 16 -6 35 -6 19 0 35 -4 35 -10
0 -11 -93 -14 -103 -4 -4 4 11 28 33 54 22 26 40 51 40 54 0 3 -16 6 -35 6
-19 0 -35 5 -35 10 0 6 23 10 50 10 31 0 50 -4 50 -11z m265 -14 c14 -13 25
-33 25 -45 0 -28 -43 -70 -72 -70 -42 0 -68 27 -68 70 0 67 68 93 115 45z
m-775 -105 c0 -5 -4 -10 -10 -10 -5 0 -10 5 -10 10 0 6 5 10 10 10 6 0 10 -4
10 -10z"/>
<path d="M1120 2525 c0 -11 7 -15 23 -13 12 2 22 8 22 13 0 6 -10 11 -22 13
-16 2 -23 -2 -23 -13z"/>
<path d="M3100 2516 c0 -9 5 -16 10 -16 6 0 10 4 10 9 0 6 -4 13 -10 16 -5 3
-10 -1 -10 -9z"/>
<path d="M2080 1480 l0 -50 35 0 c44 0 65 34 47 75 -9 20 -19 25 -47 25 l-35
0 0 -50z"/>
<path d="M2820 1505 c0 -22 4 -25 34 -25 38 0 49 10 40 34 -4 10 -18 16 -40
16 -30 0 -34 -3 -34 -25z"/>
<path d="M3336 1508 c-21 -29 -20 -41 2 -61 35 -32 92 -11 92 33 0 47 -67 67
-94 28z"/>
</g>
</svg>
